<svg xmlns="http://www.w3.org/2000/svg" width="16.500" height="20.250" viewBox="0 0 16.500 20.250" fill="none">
  <path d="M 9.692 0.173 C 9.599 0.096 9.49 0.043 9.372 0.017 C 9.255 -0.008 9.133 -0.005 9.017 0.026 C 8.901 0.057 8.794 0.116 8.705 0.197 C 8.617 0.279 8.549 0.38 8.508 0.493 L 6.445 6.156 L 4.18 3.962 C 4.104 3.888 4.013 3.831 3.914 3.795 C 3.814 3.759 3.708 3.744 3.602 3.752 C 3.497 3.76 3.394 3.79 3.301 3.841 C 3.208 3.891 3.126 3.961 3.062 4.045 C 1.031 6.706 0 9.382 0 12 C 0 14.188 0.869 16.286 2.416 17.833 C 3.964 19.381 6.062 20.25 8.25 20.25 C 10.438 20.25 12.536 19.381 14.084 17.833 C 15.631 16.286 16.5 14.188 16.5 12 C 16.5 6.426 11.738 1.875 9.692 0.173 Z M 13.49 12.875 C 13.295 13.962 12.773 14.962 11.992 15.743 C 11.212 16.523 10.211 17.045 9.125 17.24 C 9.084 17.247 9.042 17.25 9 17.25 C 8.812 17.25 8.631 17.179 8.492 17.052 C 8.354 16.924 8.268 16.749 8.253 16.562 C 8.237 16.374 8.293 16.188 8.408 16.039 C 8.524 15.891 8.691 15.791 8.876 15.76 C 10.43 15.499 11.748 14.18 12.011 12.624 C 12.045 12.428 12.154 12.253 12.317 12.138 C 12.479 12.023 12.68 11.977 12.877 12.01 C 13.073 12.043 13.248 12.153 13.363 12.316 C 13.478 12.478 13.524 12.679 13.491 12.875 L 13.49 12.875 Z" fill="currentColor" fill-rule="nonzero"></path>
</svg>