<svg xmlns="http://www.w3.org/2000/svg" viewBox="0 0 48 48" shape-rendering="crispEdges">

<rect width="48" height="48" fill="#1A0E08"></rect>


<rect x="20" y="2" width="2" height="2" fill="#6B5448" opacity="0.5"></rect>
<rect x="22" y="4" width="2" height="1" fill="#6B5448" opacity="0.4"></rect>
<rect x="26" y="3" width="2" height="2" fill="#6B5448" opacity="0.5"></rect>
<rect x="28" y="5" width="2" height="1" fill="#6B5448" opacity="0.4"></rect>


<rect x="22" y="8" width="4" height="1" fill="#FF6B3D"></rect>
<rect x="20" y="9" width="8" height="1" fill="#FF6B3D"></rect>
<rect x="19" y="10" width="10" height="1" fill="#FF6B3D"></rect>
<rect x="18" y="11" width="12" height="1" fill="#FF6B3D"></rect>
<rect x="17" y="12" width="14" height="1" fill="#FF6B3D"></rect>
<rect x="16" y="13" width="16" height="1" fill="#FF6B3D"></rect>
<rect x="15" y="14" width="18" height="1" fill="#FF6B3D"></rect>
<rect x="14" y="15" width="20" height="1" fill="#FF6B3D"></rect>
<rect x="13" y="16" width="22" height="1" fill="#FF6B3D"></rect>
<rect x="13" y="17" width="22" height="1" fill="#FF6B3D"></rect>
<rect x="12" y="18" width="24" height="1" fill="#FF6B3D"></rect>
<rect x="12" y="19" width="24" height="1" fill="#FF6B3D"></rect>
<rect x="13" y="20" width="22" height="1" fill="#C44536"></rect>
<rect x="13" y="21" width="22" height="1" fill="#C44536"></rect>
<rect x="14" y="22" width="20" height="1" fill="#8A2818"></rect>


<rect x="22" y="8" width="1" height="1" fill="#C44536"></rect>
<rect x="25" y="8" width="1" height="1" fill="#C44536"></rect>
<rect x="20" y="9" width="1" height="1" fill="#C44536"></rect>
<rect x="27" y="9" width="1" height="1" fill="#C44536"></rect>
<rect x="19" y="10" width="1" height="1" fill="#C44536"></rect>
<rect x="28" y="10" width="1" height="1" fill="#C44536"></rect>
<rect x="18" y="11" width="1" height="1" fill="#C44536"></rect>
<rect x="29" y="11" width="1" height="1" fill="#C44536"></rect>


<rect x="22" y="11" width="4" height="1" fill="#FF9A55"></rect>
<rect x="20" y="12" width="8" height="1" fill="#FF9A55"></rect>
<rect x="19" y="13" width="10" height="1" fill="#FF9A55"></rect>
<rect x="18" y="14" width="12" height="1" fill="#FF9A55"></rect>
<rect x="17" y="15" width="14" height="1" fill="#FF9A55"></rect>
<rect x="16" y="16" width="16" height="1" fill="#FF9A55"></rect>
<rect x="16" y="17" width="16" height="1" fill="#FF9A55"></rect>
<rect x="17" y="18" width="14" height="1" fill="#FF9A55"></rect>
<rect x="17" y="19" width="14" height="1" fill="#FF9A55"></rect>


<rect x="22" y="14" width="4" height="1" fill="#FFD66B"></rect>
<rect x="20" y="15" width="8" height="1" fill="#FFD66B"></rect>
<rect x="19" y="16" width="10" height="1" fill="#FFD66B"></rect>
<rect x="19" y="17" width="10" height="1" fill="#FFD66B"></rect>
<rect x="20" y="18" width="8" height="1" fill="#FFD66B"></rect>


<rect x="22" y="16" width="4" height="1" fill="#FFE89A"></rect>
<rect x="22" y="17" width="4" height="1" fill="#FFE89A"></rect>
<rect x="23" y="18" width="2" height="1" fill="#FFE89A"></rect>


<rect x="9" y="29" width="30" height="1" fill="#2A1610"></rect>
<rect x="9" y="30" width="30" height="2" fill="#7A4A1F"></rect>
<rect x="9" y="32" width="30" height="1" fill="#4A2A14"></rect>

<rect x="14" y="31" width="1" height="1" fill="#A16A2E"></rect>
<rect x="22" y="31" width="1" height="1" fill="#A16A2E"></rect>
<rect x="31" y="31" width="1" height="1" fill="#A16A2E"></rect>

<rect x="8" y="30" width="1" height="2" fill="#2A1610"></rect>
<rect x="39" y="30" width="1" height="2" fill="#2A1610"></rect>


<rect x="6" y="26" width="2" height="1" fill="#2A1610"></rect>
<rect x="6" y="27" width="3" height="2" fill="#7A4A1F"></rect>
<rect x="9" y="28" width="3" height="2" fill="#7A4A1F"></rect>
<rect x="12" y="29" width="3" height="2" fill="#7A4A1F"></rect>
<rect x="15" y="30" width="4" height="2" fill="#7A4A1F"></rect>
<rect x="6" y="28" width="3" height="1" fill="#4A2A14"></rect>
<rect x="9" y="29" width="3" height="1" fill="#4A2A14"></rect>
<rect x="12" y="30" width="3" height="1" fill="#4A2A14"></rect>


<rect x="40" y="26" width="2" height="1" fill="#2A1610"></rect>
<rect x="39" y="27" width="3" height="2" fill="#7A4A1F"></rect>
<rect x="36" y="28" width="3" height="2" fill="#7A4A1F"></rect>
<rect x="33" y="29" width="3" height="2" fill="#7A4A1F"></rect>
<rect x="29" y="30" width="4" height="2" fill="#7A4A1F"></rect>
<rect x="39" y="28" width="3" height="1" fill="#4A2A14"></rect>
<rect x="36" y="29" width="3" height="1" fill="#4A2A14"></rect>
<rect x="33" y="30" width="3" height="1" fill="#4A2A14"></rect>


<rect x="14" y="33" width="20" height="1" fill="#8A2818"></rect>
<rect x="16" y="34" width="16" height="1" fill="#C44536"></rect>
<rect x="18" y="35" width="12" height="1" fill="#FF6B3D"></rect>
<rect x="20" y="36" width="8" height="1" fill="#FFD66B"></rect>


<rect x="10" y="20" width="1" height="1" fill="#FFD66B"></rect>
<rect x="38" y="18" width="1" height="1" fill="#FFD66B"></rect>
<rect x="6" y="24" width="1" height="1" fill="#FF6B3D"></rect>
<rect x="42" y="22" width="1" height="1" fill="#FF6B3D"></rect>
<rect x="4" y="20" width="1" height="1" fill="#FFD66B"></rect>
<rect x="44" y="26" width="1" height="1" fill="#FFD66B"></rect>
<rect x="11" y="11" width="1" height="1" fill="#FF9A55"></rect>
<rect x="36" y="13" width="1" height="1" fill="#FF9A55"></rect>


<rect x="2" y="38" width="3" height="2" fill="#5A4A42"></rect>
<rect x="3" y="37" width="2" height="1" fill="#6B5448"></rect>
<rect x="5" y="40" width="3" height="1" fill="#5A4A42"></rect>
<rect x="40" y="38" width="3" height="2" fill="#5A4A42"></rect>
<rect x="41" y="37" width="2" height="1" fill="#6B5448"></rect>
<rect x="44" y="40" width="3" height="1" fill="#5A4A42"></rect>
<rect x="20" y="40" width="8" height="1" fill="#5A4A42"></rect>
<rect x="22" y="41" width="4" height="1" fill="#6B5448"></rect>


<rect x="0" y="42" width="48" height="2" fill="#2A1610"></rect>
<rect x="0" y="44" width="48" height="2" fill="#4A2A14"></rect>
<rect x="0" y="46" width="48" height="2" fill="#7A4A1F"></rect>
</svg>