<svg xmlns="http://www.w3.org/2000/svg" viewBox="0 0 48 48" shape-rendering="crispEdges">

<rect width="48" height="48" fill="#1A0E08"></rect>


<rect x="22" y="5" width="4" height="1" fill="#FF9A55"></rect>
<rect x="20" y="6" width="8" height="1" fill="#FF9A55"></rect>
<rect x="19" y="7" width="10" height="1" fill="#FF9A55"></rect>
<rect x="17" y="8" width="14" height="1" fill="#FF9A55"></rect>
<rect x="16" y="9" width="16" height="1" fill="#FF6B3D"></rect>


<rect x="22" y="5" width="1" height="1" fill="#2A1610"></rect>
<rect x="25" y="5" width="1" height="1" fill="#2A1610"></rect>
<rect x="20" y="6" width="1" height="1" fill="#2A1610"></rect>
<rect x="27" y="6" width="1" height="1" fill="#2A1610"></rect>
<rect x="19" y="7" width="1" height="1" fill="#2A1610"></rect>
<rect x="28" y="7" width="1" height="1" fill="#2A1610"></rect>
<rect x="17" y="8" width="1" height="1" fill="#2A1610"></rect>
<rect x="30" y="8" width="1" height="1" fill="#2A1610"></rect>


<rect x="14" y="10" width="20" height="1" fill="#FF6B3D"></rect>
<rect x="12" y="11" width="22" height="1" fill="#FF6B3D"></rect>
<rect x="10" y="12" width="24" height="1" fill="#FF6B3D"></rect>
<rect x="8" y="13" width="26" height="1" fill="#FF6B3D"></rect>
<rect x="6" y="14" width="28" height="1" fill="#FF6B3D"></rect>
<rect x="6" y="15" width="28" height="1" fill="#FF6B3D"></rect>
<rect x="6" y="16" width="28" height="1" fill="#FF6B3D"></rect>
<rect x="6" y="17" width="28" height="1" fill="#FF6B3D"></rect>
<rect x="6" y="18" width="28" height="1" fill="#FF6B3D"></rect>
<rect x="6" y="19" width="28" height="1" fill="#FF6B3D"></rect>
<rect x="6" y="20" width="28" height="1" fill="#FF6B3D"></rect>
<rect x="6" y="21" width="28" height="1" fill="#FF6B3D"></rect>
<rect x="6" y="22" width="28" height="1" fill="#FF6B3D"></rect>
<rect x="6" y="23" width="28" height="1" fill="#FF6B3D"></rect>
<rect x="6" y="24" width="28" height="1" fill="#FF6B3D"></rect>
<rect x="6" y="25" width="28" height="1" fill="#FF6B3D"></rect>
<rect x="6" y="26" width="28" height="1" fill="#FF6B3D"></rect>
<rect x="6" y="27" width="28" height="1" fill="#FF6B3D"></rect>
<rect x="6" y="28" width="28" height="1" fill="#FF6B3D"></rect>
<rect x="6" y="29" width="28" height="1" fill="#FF6B3D"></rect>


<rect x="14" y="10" width="20" height="1" fill="#FF9A55"></rect>
<rect x="12" y="11" width="2" height="1" fill="#FF9A55"></rect>
<rect x="10" y="12" width="2" height="1" fill="#FF9A55"></rect>
<rect x="8" y="13" width="2" height="1" fill="#FF9A55"></rect>
<rect x="6" y="14" width="2" height="1" fill="#FF9A55"></rect>
<rect x="6" y="15" width="1" height="14" fill="#FF9A55"></rect>


<rect x="28" y="10" width="6" height="1" fill="#C44536"></rect>
<rect x="28" y="11" width="6" height="1" fill="#C44536"></rect>
<rect x="28" y="12" width="6" height="1" fill="#C44536"></rect>
<rect x="28" y="13" width="6" height="1" fill="#C44536"></rect>
<rect x="28" y="14" width="6" height="1" fill="#C44536"></rect>
<rect x="28" y="15" width="6" height="1" fill="#C44536"></rect>
<rect x="28" y="16" width="6" height="1" fill="#C44536"></rect>
<rect x="28" y="17" width="6" height="1" fill="#C44536"></rect>
<rect x="28" y="18" width="6" height="1" fill="#C44536"></rect>
<rect x="28" y="19" width="6" height="1" fill="#C44536"></rect>
<rect x="28" y="20" width="6" height="1" fill="#C44536"></rect>
<rect x="28" y="21" width="6" height="1" fill="#C44536"></rect>
<rect x="28" y="22" width="6" height="1" fill="#C44536"></rect>
<rect x="28" y="23" width="6" height="1" fill="#C44536"></rect>
<rect x="28" y="24" width="6" height="1" fill="#C44536"></rect>
<rect x="28" y="25" width="6" height="1" fill="#C44536"></rect>
<rect x="28" y="26" width="6" height="1" fill="#C44536"></rect>
<rect x="28" y="27" width="6" height="1" fill="#C44536"></rect>
<rect x="28" y="28" width="6" height="1" fill="#C44536"></rect>
<rect x="28" y="29" width="6" height="1" fill="#C44536"></rect>


<rect x="34" y="14" width="1" height="16" fill="#8A2818"></rect>


<rect x="6" y="30" width="28" height="1" fill="#FF6B3D"></rect>
<rect x="28" y="30" width="6" height="1" fill="#C44536"></rect>
<rect x="8" y="31" width="24" height="1" fill="#FF6B3D"></rect>
<rect x="26" y="31" width="6" height="1" fill="#C44536"></rect>
<rect x="10" y="32" width="20" height="1" fill="#FF6B3D"></rect>
<rect x="24" y="32" width="6" height="1" fill="#C44536"></rect>
<rect x="12" y="33" width="16" height="1" fill="#FF6B3D"></rect>
<rect x="22" y="33" width="6" height="1" fill="#C44536"></rect>
<rect x="14" y="34" width="12" height="1" fill="#FF6B3D"></rect>
<rect x="20" y="34" width="6" height="1" fill="#C44536"></rect>
<rect x="16" y="35" width="8" height="1" fill="#FF6B3D"></rect>
<rect x="20" y="35" width="4" height="1" fill="#C44536"></rect>
<rect x="18" y="36" width="4" height="1" fill="#FF6B3D"></rect>
<rect x="20" y="37" width="2" height="1" fill="#FF6B3D"></rect>


<rect x="20" y="10" width="1" height="1" fill="#C49032"></rect>
<rect x="27" y="10" width="1" height="1" fill="#C49032"></rect>
<rect x="14" y="14" width="1" height="1" fill="#C49032"></rect>
<rect x="20" y="13" width="1" height="1" fill="#C49032"></rect>
<rect x="27" y="13" width="1" height="1" fill="#C49032"></rect>
<rect x="20" y="22" width="1" height="1" fill="#C49032"></rect>
<rect x="27" y="22" width="1" height="1" fill="#C49032"></rect>

<rect x="14" y="24" width="1" height="1" fill="#C49032"></rect>
<rect x="15" y="26" width="1" height="1" fill="#C49032"></rect>
<rect x="17" y="28" width="1" height="1" fill="#C49032"></rect>
<rect x="19" y="30" width="1" height="1" fill="#C49032"></rect>
<rect x="21" y="32" width="1" height="1" fill="#C49032"></rect>



<rect x="17" y="18" width="3" height="1" fill="#FFE89A"></rect>
<rect x="20" y="18" width="1" height="1" fill="#FFE89A"></rect>
<rect x="20" y="19" width="1" height="1" fill="#FFE89A"></rect>
<rect x="19" y="20" width="2" height="1" fill="#FFE89A"></rect>
<rect x="18" y="21" width="2" height="1" fill="#FFE89A"></rect>
<rect x="17" y="22" width="1" height="1" fill="#FFE89A"></rect>
<rect x="17" y="23" width="4" height="1" fill="#FFE89A"></rect>

<rect x="17" y="24" width="4" height="1" fill="#8A2818"></rect>

<rect x="23" y="18" width="3" height="1" fill="#FFE89A"></rect>
<rect x="22" y="19" width="1" height="4" fill="#FFE89A"></rect>
<rect x="26" y="19" width="1" height="4" fill="#FFE89A"></rect>
<rect x="23" y="23" width="3" height="1" fill="#FFE89A"></rect>

<rect x="23" y="24" width="3" height="1" fill="#8A2818"></rect>


<rect x="38" y="8" width="1" height="1" fill="#FFE89A"></rect>
<rect x="40" y="9" width="1" height="1" fill="#FFD66B"></rect>
<rect x="38" y="10" width="1" height="1" fill="#FFD66B"></rect>
<rect x="4" y="32" width="1" height="1" fill="#FFD66B"></rect>
<rect x="42" y="34" width="1" height="1" fill="#FFD66B"></rect>


<rect x="10" y="40" width="28" height="1" fill="#2A1610"></rect>
<rect x="14" y="41" width="20" height="1" fill="#2A1610"></rect>
</svg>