<svg xmlns="http://www.w3.org/2000/svg" viewBox="0 0 48 48" shape-rendering="crispEdges">

<rect width="48" height="48" fill="#1A0E08"></rect>


<rect x="22" y="11" width="4" height="1" fill="#FF6B3D"></rect>
<rect x="21" y="12" width="6" height="1" fill="#FF6B3D"></rect>
<rect x="21" y="13" width="6" height="1" fill="#FFD66B"></rect>
<rect x="22" y="14" width="4" height="1" fill="#FFE89A"></rect>
<rect x="20" y="15" width="8" height="1" fill="#7A4A1F"></rect>
<rect x="21" y="16" width="6" height="1" fill="#4A2A14"></rect>



<rect x="5" y="14" width="6" height="1" fill="#C44536"></rect>
<rect x="4" y="15" width="8" height="2" fill="#FF6B3D"></rect>
<rect x="4" y="17" width="8" height="1" fill="#C44536"></rect>

<rect x="7" y="12" width="2" height="2" fill="#8A2818"></rect>
<rect x="8" y="13" width="1" height="1" fill="#FF6B3D"></rect>

<rect x="5" y="18" width="6" height="3" fill="#F2C9A8"></rect>
<rect x="6" y="19" width="1" height="1" fill="#2A1610"></rect>
<rect x="9" y="19" width="1" height="1" fill="#2A1610"></rect>
<rect x="7" y="20" width="2" height="1" fill="#7A4A1F"></rect>

<rect x="3" y="21" width="10" height="1" fill="#5A4A42"></rect>
<rect x="2" y="22" width="12" height="6" fill="#5A4A42"></rect>
<rect x="5" y="23" width="6" height="4" fill="#FF6B3D"></rect>
<rect x="7" y="24" width="2" height="2" fill="#FFD66B"></rect>

<rect x="2" y="22" width="2" height="3" fill="#2A1610"></rect>
<rect x="12" y="22" width="2" height="3" fill="#2A1610"></rect>

<rect x="13" y="22" width="2" height="6" fill="#F2C9A8"></rect>
<rect x="14" y="20" width="1" height="2" fill="#F2C9A8"></rect>
<rect x="14" y="14" width="1" height="6" fill="#A16A2E"></rect>
<rect x="13" y="13" width="3" height="1" fill="#A16A2E"></rect>
<rect x="14" y="8" width="1" height="6" fill="#FFE89A"></rect>



<rect x="23" y="3" width="2" height="1" fill="#2E5A40"></rect>
<rect x="22" y="4" width="4" height="1" fill="#2E5A40"></rect>
<rect x="22" y="5" width="4" height="1" fill="#2E5A40"></rect>
<rect x="21" y="6" width="6" height="2" fill="#2E5A40"></rect>
<rect x="20" y="8" width="8" height="1" fill="#2E5A40"></rect>

<rect x="19" y="9" width="10" height="1" fill="#1A0E08"></rect>

<rect x="24" y="6" width="1" height="2" fill="#FFD66B"></rect>
<rect x="23" y="7" width="3" height="1" fill="#FFD66B"></rect>

<rect x="20" y="20" width="6" height="4" fill="#F2C9A8"></rect>
<rect x="21" y="21" width="1" height="1" fill="#2A1610"></rect>
<rect x="24" y="21" width="1" height="1" fill="#2A1610"></rect>

<rect x="20" y="23" width="6" height="3" fill="#F2C9A8"></rect>
<rect x="20" y="24" width="6" height="2" fill="#FFE89A"></rect>
<rect x="21" y="26" width="4" height="1" fill="#FFE89A"></rect>

<rect x="19" y="27" width="8" height="9" fill="#2E5A40"></rect>
<rect x="20" y="28" width="6" height="2" fill="#FFD66B"></rect>

<rect x="29" y="6" width="1" height="22" fill="#7A4A1F"></rect>
<rect x="28" y="5" width="3" height="1" fill="#7A4A1F"></rect>
<rect x="28" y="4" width="3" height="1" fill="#FFD66B"></rect>
<rect x="29" y="3" width="1" height="1" fill="#FFE89A"></rect>



<rect x="38" y="13" width="2" height="1" fill="#2A1610"></rect>
<rect x="37" y="14" width="4" height="1" fill="#2A1610"></rect>
<rect x="36" y="15" width="6" height="2" fill="#2A1610"></rect>
<rect x="35" y="17" width="8" height="2" fill="#2A1610"></rect>

<rect x="36" y="19" width="6" height="3" fill="#5A4A42"></rect>

<rect x="37" y="20" width="1" height="1" fill="#FFD66B"></rect>
<rect x="40" y="20" width="1" height="1" fill="#FFD66B"></rect>

<rect x="36" y="21" width="6" height="1" fill="#2A1610"></rect>

<rect x="34" y="22" width="10" height="1" fill="#2A1610"></rect>
<rect x="34" y="23" width="10" height="13" fill="#2E5A40"></rect>
<rect x="34" y="23" width="10" height="2" fill="#2A1610"></rect>
<rect x="33" y="24" width="1" height="10" fill="#2A1610"></rect>
<rect x="44" y="24" width="1" height="10" fill="#2A1610"></rect>

<rect x="32" y="26" width="1" height="5" fill="#A16A2E"></rect>
<rect x="31" y="22" width="1" height="4" fill="#FFE89A"></rect>
<rect x="30" y="21" width="2" height="1" fill="#FFE89A"></rect>


<rect x="0" y="38" width="48" height="2" fill="#2A1610"></rect>
<rect x="0" y="40" width="48" height="2" fill="#4A2A14"></rect>
<rect x="0" y="42" width="48" height="6" fill="#7A4A1F"></rect>

<rect x="6" y="40" width="2" height="1" fill="#2E5A40"></rect>
<rect x="20" y="40" width="2" height="1" fill="#2E5A40"></rect>
<rect x="38" y="40" width="2" height="1" fill="#2E5A40"></rect>


<rect x="3" y="38" width="12" height="1" fill="#1A0E08"></rect>
<rect x="18" y="36" width="10" height="1" fill="#1A0E08"></rect>
<rect x="33" y="36" width="12" height="1" fill="#1A0E08"></rect>
</svg>