<svg xmlns="http://www.w3.org/2000/svg" viewBox="0 0 48 48" shape-rendering="crispEdges">

<rect width="48" height="48" fill="#1A0E08"></rect>


<rect x="9" y="5" width="30" height="1" fill="#2A1610"></rect>
<rect x="7" y="6" width="34" height="1" fill="#2A1610"></rect>
<rect x="6" y="7" width="36" height="1" fill="#2A1610"></rect>
<rect x="6" y="8" width="36" height="20" fill="#2A1610"></rect>
<rect x="7" y="28" width="34" height="1" fill="#2A1610"></rect>
<rect x="8" y="29" width="32" height="1" fill="#2A1610"></rect>
<rect x="9" y="30" width="30" height="1" fill="#2A1610"></rect>
<rect x="10" y="31" width="28" height="1" fill="#2A1610"></rect>
<rect x="12" y="32" width="24" height="1" fill="#2A1610"></rect>
<rect x="13" y="33" width="22" height="1" fill="#2A1610"></rect>
<rect x="15" y="34" width="18" height="1" fill="#2A1610"></rect>
<rect x="16" y="35" width="16" height="1" fill="#2A1610"></rect>
<rect x="18" y="36" width="12" height="1" fill="#2A1610"></rect>
<rect x="19" y="37" width="10" height="1" fill="#2A1610"></rect>
<rect x="21" y="38" width="6" height="1" fill="#2A1610"></rect>
<rect x="22" y="39" width="4" height="1" fill="#2A1610"></rect>
<rect x="23" y="40" width="2" height="1" fill="#2A1610"></rect>


<rect x="10" y="6" width="28" height="1" fill="#FF6B3D"></rect>
<rect x="8" y="7" width="32" height="1" fill="#FF6B3D"></rect>
<rect x="7" y="8" width="34" height="20" fill="#FF6B3D"></rect>
<rect x="8" y="28" width="32" height="1" fill="#FF6B3D"></rect>
<rect x="9" y="29" width="30" height="1" fill="#FF6B3D"></rect>
<rect x="10" y="30" width="28" height="1" fill="#FF6B3D"></rect>
<rect x="11" y="31" width="26" height="1" fill="#FF6B3D"></rect>
<rect x="13" y="32" width="22" height="1" fill="#FF6B3D"></rect>
<rect x="14" y="33" width="20" height="1" fill="#FF6B3D"></rect>
<rect x="16" y="34" width="16" height="1" fill="#FF6B3D"></rect>
<rect x="17" y="35" width="14" height="1" fill="#FF6B3D"></rect>
<rect x="19" y="36" width="10" height="1" fill="#FF6B3D"></rect>
<rect x="20" y="37" width="8" height="1" fill="#FF6B3D"></rect>
<rect x="22" y="38" width="4" height="1" fill="#FF6B3D"></rect>
<rect x="23" y="39" width="2" height="1" fill="#FF6B3D"></rect>


<rect x="10" y="6" width="28" height="1" fill="#FF9A55"></rect>
<rect x="8" y="7" width="32" height="1" fill="#FF9A55"></rect>
<rect x="7" y="8" width="2" height="20" fill="#FF9A55"></rect>
<rect x="9" y="9" width="1" height="18" fill="#FF9A55"></rect>


<rect x="38" y="8" width="3" height="20" fill="#C44536"></rect>
<rect x="37" y="9" width="1" height="19" fill="#C44536"></rect>
<rect x="36" y="28" width="4" height="1" fill="#C44536"></rect>
<rect x="33" y="32" width="2" height="1" fill="#C44536"></rect>
<rect x="32" y="33" width="2" height="1" fill="#C44536"></rect>
<rect x="30" y="34" width="2" height="1" fill="#C44536"></rect>
<rect x="29" y="35" width="2" height="1" fill="#C44536"></rect>
<rect x="27" y="36" width="2" height="1" fill="#C44536"></rect>
<rect x="26" y="37" width="2" height="1" fill="#C44536"></rect>
<rect x="24" y="38" width="2" height="1" fill="#C44536"></rect>


<rect x="22" y="9" width="4" height="22" fill="#FFD66B"></rect>

<rect x="13" y="14" width="22" height="4" fill="#FFD66B"></rect>

<rect x="22" y="9" width="1" height="22" fill="#FFE89A"></rect>
<rect x="13" y="14" width="22" height="1" fill="#FFE89A"></rect>

<rect x="25" y="9" width="1" height="22" fill="#C49032"></rect>
<rect x="13" y="17" width="22" height="1" fill="#C49032"></rect>


<rect x="10" y="9" width="2" height="2" fill="#A16A2E"></rect>
<rect x="10" y="9" width="1" height="1" fill="#FFD66B"></rect>
<rect x="36" y="9" width="2" height="2" fill="#A16A2E"></rect>
<rect x="36" y="9" width="1" height="1" fill="#FFD66B"></rect>
<rect x="10" y="24" width="2" height="2" fill="#A16A2E"></rect>
<rect x="10" y="24" width="1" height="1" fill="#FFD66B"></rect>
<rect x="36" y="24" width="2" height="2" fill="#A16A2E"></rect>
<rect x="36" y="24" width="1" height="1" fill="#FFD66B"></rect>


<rect x="10" y="6" width="1" height="1" fill="#C49032"></rect>
<rect x="37" y="6" width="1" height="1" fill="#C49032"></rect>
<rect x="11" y="5" width="2" height="1" fill="#C49032"></rect>
<rect x="35" y="5" width="2" height="1" fill="#C49032"></rect>


<rect x="14" y="42" width="20" height="1" fill="#2A1610"></rect>
<rect x="18" y="43" width="12" height="1" fill="#2A1610"></rect>
</svg>